<svg width="32" height="32" viewBox="0 0 32 32" fill="red" xmlns="http://www.w3.org/2000/svg">
<g id="bars ">
<path id="Vector" d="M3.99996 10.6667H28C28.3536 10.6667 28.6927 10.5262 28.9428 10.2761C29.1928 10.0261 29.3333 9.68696 29.3333 9.33333C29.3333 8.97971 29.1928 8.64057 28.9428 8.39052C28.6927 8.14048 28.3536 8 28 8H3.99996C3.64634 8 3.3072 8.14048 3.05715 8.39052C2.8071 8.64057 2.66663 8.97971 2.66663 9.33333C2.66663 9.68696 2.8071 10.0261 3.05715 10.2761C3.3072 10.5262 3.64634 10.6667 3.99996 10.6667ZM28 21.3333H3.99996C3.64634 21.3333 3.3072 21.4738 3.05715 21.7239C2.8071 21.9739 2.66663 22.313 2.66663 22.6667C2.66663 23.0203 2.8071 23.3594 3.05715 23.6095C3.3072 23.8595 3.64634 24 3.99996 24H28C28.3536 24 28.6927 23.8595 28.9428 23.6095C29.1928 23.3594 29.3333 23.0203 29.3333 22.6667C29.3333 22.313 29.1928 21.9739 28.9428 21.7239C28.6927 21.4738 28.3536 21.3333 28 21.3333ZM28 14.6667H3.99996C3.64634 14.6667 3.3072 14.8071 3.05715 15.0572C2.8071 15.3072 2.66663 15.6464 2.66663 16C2.66663 16.3536 2.8071 16.6928 3.05715 16.9428C3.3072 17.1929 3.64634 17.3333 3.99996 17.3333H28C28.3536 17.3333 28.6927 17.1929 28.9428 16.9428C29.1928 16.6928 29.3333 16.3536 29.3333 16C29.3333 15.6464 29.1928 15.3072 28.9428 15.0572C28.6927 14.8071 28.3536 14.6667 28 14.6667Z" fill="red"/>
</g>
</svg>
